<svg id="vector" xmlns="http://www.w3.org/2000/svg" width="18" height="18" viewBox="0 0 18 18">
    <defs>
        <linearGradient id="bggrad" x1="0%" x2="100%" y1="0" y2="1">
            <stop offset="40%" stop-color="forestgreen"/>
            <stop offset="100%" stop-color="lightgreen"/>
        </linearGradient>
    </defs>
    <rect x="0" y="0" width="18" height="18" fill="url('#bggrad')"/>
    <path fill="none" d="M0,5H24M0,7H24M0,9H24M0,11H24M0,9H24M0,13H24" stroke="#000000" stroke-width="0.2" id="path_0"/>
    <path fill="#000000" d="M3,13a1,1 0,0 0,-1 -1a1,1 0,0 0,-1 1a1,1 0,0 0,1 1a1,1 0,0 0,1 -1" stroke="#000000" stroke-width="0.2" id="path_1"/>
    <path fill="none" d="M3,13v-5.5c-0.1,0.667 1,2 1,3" stroke="#000000" stroke-width="0.2" id="path_2"/>
    <path fill="#000000" d="M7,11a1,1 0,0 0,-1 -1a1,1 0,0 0,-1 1a1,1 0,0 0,1 1a1,1 0,0 0,1 -1" stroke="#000000" stroke-width="0.2" id="path_3"/>
    <path fill="none" d="M7,11v-5.5c-0.1,0.667 1,2 1,3" stroke="#000000" stroke-width="0.2" id="path_4"/>
    <path fill="#000000" d="M11,9a1,1 0,0 0,-1 -1a1,1 0,0 0,-1 1a1,1 0,0 0,1 1a1,1 0,0 0,1 -1" stroke="#000000" stroke-width="0.2" id="path_5"/>
    <path fill="none" d="M11,9v-5.5c-0.1,0.667 1,2 1,3" stroke="#000000" stroke-width="0.2" id="path_6"/>
    <path fill="#000000" d="M15,7a1,1 0,0 0,-1 -1a1,1 0,0 0,-1 1a1,1 0,0 0,1 1a1,1 0,0 0,1 -1" stroke="#000000" stroke-width="0.2" id="path_7"/>
    <path fill="none" d="M15,7v-5.5c-0.1,0.667 1,2 1,3" stroke="#000000" stroke-width="0.2" id="path_8"/>
</svg>